<mxfile host="app.diagrams.net" modified="2024-03-26T01:48:36.675Z" agent="Mozilla/5.0 (X11; Linux x86_64) AppleWebKit/537.36 (KHTML, like Gecko) Chrome/113.0.0.0 Safari/537.36" version="24.1.0" etag="hGEqJPRwBoxIvb44jZjN" type="github">
  <diagram name="第 1 页" id="vP1I5XCgh7gRCZWXcxTW">
    <mxGraphModel>
      <root>
        <mxCell id="0" />
        <mxCell id="1" parent="0" />
      </root>
    </mxGraphModel>
  </diagram>
</mxfile>
